<svg xmlns="http://www.w3.org/2000/svg" width="100%" height="100%" viewBox="0 0 16 11" preserveAspectRatio="none" shape-rendering="crispEdges" style="position:absolute;top:50%;left:50%;right:0;bottom:0;transform-origin:top left;transform:translate(-50%, -50%)"><rect x="0" y="0" width="1" height="1" fill="rgb(126,172,232)" fill-opacity="1" /><rect x="1" y="0" width="1" height="1" fill="rgb(131,175,234)" fill-opacity="1" /><rect x="2" y="0" width="1" height="1" fill="rgb(151,190,241)" fill-opacity="1" /><rect x="3" y="0" width="1" height="1" fill="rgb(179,210,251)" fill-opacity="1" /><rect x="4" y="0" width="1" height="1" fill="rgb(173,204,248)" fill-opacity="1" /><rect x="5" y="0" width="1" height="1" fill="rgb(123,169,229)" fill-opacity="1" /><rect x="6" y="0" width="1" height="1" fill="rgb(123,170,232)" fill-opacity="1" /><rect x="7" y="0" width="1" height="1" fill="rgb(136,175,226)" fill-opacity="1" /><rect x="8" y="0" width="1" height="1" fill="rgb(131,173,225)" fill-opacity="1" /><rect x="9" y="0" width="1" height="1" fill="rgb(115,169,229)" fill-opacity="1" /><rect x="10" y="0" width="1" height="1" fill="rgb(129,176,230)" fill-opacity="1" /><rect x="11" y="0" width="1" height="1" fill="rgb(137,186,241)" fill-opacity="1" /><rect x="12" y="0" width="1" height="1" fill="rgb(135,182,237)" fill-opacity="1" /><rect x="13" y="0" width="1" height="1" fill="rgb(105,135,173)" fill-opacity="1" /><rect x="14" y="0" width="1" height="1" fill="rgb(79,79,82)" fill-opacity="1" /><rect x="15" y="0" width="1" height="1" fill="rgb(50,46,44)" fill-opacity="1" /><rect x="0" y="1" width="1" height="1" fill="rgb(155,190,239)" fill-opacity="1" /><rect x="1" y="1" width="1" height="1" fill="rgb(151,189,239)" fill-opacity="1" /><rect x="2" y="1" width="1" height="1" fill="rgb(160,196,243)" fill-opacity="1" /><rect x="3" y="1" width="1" height="1" fill="rgb(156,192,241)" fill-opacity="1" /><rect x="4" y="1" width="1" height="1" fill="rgb(163,198,243)" fill-opacity="1" /><rect x="5" y="1" width="1" height="1" fill="rgb(166,200,244)" fill-opacity="1" /><rect x="6" y="1" width="1" height="1" fill="rgb(157,194,242)" fill-opacity="1" /><rect x="7" y="1" width="1" height="1" fill="rgb(157,194,240)" fill-opacity="1" /><rect x="8" y="1" width="1" height="1" fill="rgb(146,187,236)" fill-opacity="1" /><rect x="9" y="1" width="1" height="1" fill="rgb(186,218,254)" fill-opacity="1" /><rect x="10" y="1" width="1" height="1" fill="rgb(189,226,255)" fill-opacity="1" /><rect x="11" y="1" width="1" height="1" fill="rgb(147,181,217)" fill-opacity="1" /><rect x="12" y="1" width="1" height="1" fill="rgb(123,147,177)" fill-opacity="1" /><rect x="13" y="1" width="1" height="1" fill="rgb(83,93,106)" fill-opacity="1" /><rect x="14" y="1" width="1" height="1" fill="rgb(56,51,46)" fill-opacity="1" /><rect x="15" y="1" width="1" height="1" fill="rgb(25,22,20)" fill-opacity="1" /><rect x="0" y="2" width="1" height="1" fill="rgb(169,199,240)" fill-opacity="1" /><rect x="1" y="2" width="1" height="1" fill="rgb(166,198,239)" fill-opacity="1" /><rect x="2" y="2" width="1" height="1" fill="rgb(160,192,236)" fill-opacity="1" /><rect x="3" y="2" width="1" height="1" fill="rgb(178,206,241)" fill-opacity="1" /><rect x="4" y="2" width="1" height="1" fill="rgb(195,219,249)" fill-opacity="1" /><rect x="5" y="2" width="1" height="1" fill="rgb(183,212,247)" fill-opacity="1" /><rect x="6" y="2" width="1" height="1" fill="rgb(179,212,249)" fill-opacity="1" /><rect x="7" y="2" width="1" height="1" fill="rgb(181,216,254)" fill-opacity="1" /><rect x="8" y="2" width="1" height="1" fill="rgb(150,200,248)" fill-opacity="1" /><rect x="9" y="2" width="1" height="1" fill="rgb(145,181,216)" fill-opacity="1" /><rect x="10" y="2" width="1" height="1" fill="rgb(76,103,135)" fill-opacity="1" /><rect x="11" y="2" width="1" height="1" fill="rgb(65,82,106)" fill-opacity="1" /><rect x="12" y="2" width="1" height="1" fill="rgb(156,182,214)" fill-opacity="1" /><rect x="13" y="2" width="1" height="1" fill="rgb(63,65,71)" fill-opacity="1" /><rect x="14" y="2" width="1" height="1" fill="rgb(5,1,0)" fill-opacity="1" /><rect x="15" y="2" width="1" height="1" fill="rgb(9,7,9)" fill-opacity="1" /><rect x="0" y="3" width="1" height="1" fill="rgb(179,206,243)" fill-opacity="1" /><rect x="1" y="3" width="1" height="1" fill="rgb(199,219,247)" fill-opacity="1" /><rect x="2" y="3" width="1" height="1" fill="rgb(221,235,253)" fill-opacity="1" /><rect x="3" y="3" width="1" height="1" fill="rgb(223,237,255)" fill-opacity="1" /><rect x="4" y="3" width="1" height="1" fill="rgb(179,210,247)" fill-opacity="1" /><rect x="5" y="3" width="1" height="1" fill="rgb(176,210,249)" fill-opacity="1" /><rect x="6" y="3" width="1" height="1" fill="rgb(146,185,228)" fill-opacity="1" /><rect x="7" y="3" width="1" height="1" fill="rgb(108,148,191)" fill-opacity="1" /><rect x="8" y="3" width="1" height="1" fill="rgb(56,79,109)" fill-opacity="1" /><rect x="9" y="3" width="1" height="1" fill="rgb(25,33,51)" fill-opacity="1" /><rect x="10" y="3" width="1" height="1" fill="rgb(5,4,10)" fill-opacity="1" /><rect x="11" y="3" width="1" height="1" fill="rgb(115,126,145)" fill-opacity="1" /><rect x="12" y="3" width="1" height="1" fill="rgb(177,203,237)" fill-opacity="1" /><rect x="13" y="3" width="1" height="1" fill="rgb(45,45,48)" fill-opacity="1" /><rect x="14" y="3" width="1" height="1" fill="rgb(26,22,18)" fill-opacity="1" /><rect x="15" y="3" width="1" height="1" fill="rgb(23,22,23)" fill-opacity="1" /><rect x="0" y="4" width="1" height="1" fill="rgb(68,104,141)" fill-opacity="1" /><rect x="1" y="4" width="1" height="1" fill="rgb(77,111,148)" fill-opacity="1" /><rect x="2" y="4" width="1" height="1" fill="rgb(83,115,148)" fill-opacity="1" /><rect x="3" y="4" width="1" height="1" fill="rgb(81,115,147)" fill-opacity="1" /><rect x="4" y="4" width="1" height="1" fill="rgb(60,101,139)" fill-opacity="1" /><rect x="5" y="4" width="1" height="1" fill="rgb(67,106,143)" fill-opacity="1" /><rect x="6" y="4" width="1" height="1" fill="rgb(50,72,96)" fill-opacity="1" /><rect x="7" y="4" width="1" height="1" fill="rgb(44,55,70)" fill-opacity="1" /><rect x="8" y="4" width="1" height="1" fill="rgb(52,62,73)" fill-opacity="1" /><rect x="9" y="4" width="1" height="1" fill="rgb(30,36,45)" fill-opacity="1" /><rect x="10" y="4" width="1" height="1" fill="rgb(22,24,30)" fill-opacity="1" /><rect x="11" y="4" width="1" height="1" fill="rgb(160,175,199)" fill-opacity="1" /><rect x="12" y="4" width="1" height="1" fill="rgb(163,185,213)" fill-opacity="1" /><rect x="13" y="4" width="1" height="1" fill="rgb(39,35,32)" fill-opacity="1" /><rect x="14" y="4" width="1" height="1" fill="rgb(46,37,27)" fill-opacity="1" /><rect x="15" y="4" width="1" height="1" fill="rgb(58,55,50)" fill-opacity="1" /><rect x="0" y="5" width="1" height="1" fill="rgb(110,128,143)" fill-opacity="1" /><rect x="1" y="5" width="1" height="1" fill="rgb(103,123,141)" fill-opacity="1" /><rect x="2" y="5" width="1" height="1" fill="rgb(91,109,128)" fill-opacity="1" /><rect x="3" y="5" width="1" height="1" fill="rgb(81,97,112)" fill-opacity="1" /><rect x="4" y="5" width="1" height="1" fill="rgb(78,91,104)" fill-opacity="1" /><rect x="5" y="5" width="1" height="1" fill="rgb(64,81,95)" fill-opacity="1" /><rect x="6" y="5" width="1" height="1" fill="rgb(76,97,113)" fill-opacity="1" /><rect x="7" y="5" width="1" height="1" fill="rgb(106,124,137)" fill-opacity="1" /><rect x="8" y="5" width="1" height="1" fill="rgb(105,121,134)" fill-opacity="1" /><rect x="9" y="5" width="1" height="1" fill="rgb(33,42,44)" fill-opacity="1" /><rect x="10" y="5" width="1" height="1" fill="rgb(73,75,71)" fill-opacity="1" /><rect x="11" y="5" width="1" height="1" fill="rgb(189,206,232)" fill-opacity="1" /><rect x="12" y="5" width="1" height="1" fill="rgb(155,171,190)" fill-opacity="1" /><rect x="13" y="5" width="1" height="1" fill="rgb(62,52,43)" fill-opacity="1" /><rect x="14" y="5" width="1" height="1" fill="rgb(73,63,54)" fill-opacity="1" /><rect x="15" y="5" width="1" height="1" fill="rgb(95,86,76)" fill-opacity="1" /><rect x="0" y="6" width="1" height="1" fill="rgb(105,124,143)" fill-opacity="1" /><rect x="1" y="6" width="1" height="1" fill="rgb(108,123,141)" fill-opacity="1" /><rect x="2" y="6" width="1" height="1" fill="rgb(109,124,139)" fill-opacity="1" /><rect x="3" y="6" width="1" height="1" fill="rgb(103,118,133)" fill-opacity="1" /><rect x="4" y="6" width="1" height="1" fill="rgb(103,121,136)" fill-opacity="1" /><rect x="5" y="6" width="1" height="1" fill="rgb(67,94,118)" fill-opacity="1" /><rect x="6" y="6" width="1" height="1" fill="rgb(92,116,134)" fill-opacity="1" /><rect x="7" y="6" width="1" height="1" fill="rgb(83,97,104)" fill-opacity="1" /><rect x="8" y="6" width="1" height="1" fill="rgb(43,46,45)" fill-opacity="1" /><rect x="9" y="6" width="1" height="1" fill="rgb(0,0,0)" fill-opacity="1" /><rect x="10" y="6" width="1" height="1" fill="rgb(83,86,94)" fill-opacity="1" /><rect x="11" y="6" width="1" height="1" fill="rgb(198,215,241)" fill-opacity="1" /><rect x="12" y="6" width="1" height="1" fill="rgb(144,157,171)" fill-opacity="1" /><rect x="13" y="6" width="1" height="1" fill="rgb(59,51,43)" fill-opacity="1" /><rect x="14" y="6" width="1" height="1" fill="rgb(65,53,43)" fill-opacity="1" /><rect x="15" y="6" width="1" height="1" fill="rgb(78,69,56)" fill-opacity="1" /><rect x="0" y="7" width="1" height="1" fill="rgb(68,98,120)" fill-opacity="1" /><rect x="1" y="7" width="1" height="1" fill="rgb(79,112,135)" fill-opacity="1" /><rect x="2" y="7" width="1" height="1" fill="rgb(85,111,131)" fill-opacity="1" /><rect x="3" y="7" width="1" height="1" fill="rgb(88,105,116)" fill-opacity="1" /><rect x="4" y="7" width="1" height="1" fill="rgb(60,75,83)" fill-opacity="1" /><rect x="5" y="7" width="1" height="1" fill="rgb(75,89,88)" fill-opacity="1" /><rect x="6" y="7" width="1" height="1" fill="rgb(93,94,86)" fill-opacity="1" /><rect x="7" y="7" width="1" height="1" fill="rgb(75,73,66)" fill-opacity="1" /><rect x="8" y="7" width="1" height="1" fill="rgb(70,72,72)" fill-opacity="1" /><rect x="9" y="7" width="1" height="1" fill="rgb(13,22,29)" fill-opacity="1" /><rect x="10" y="7" width="1" height="1" fill="rgb(112,123,141)" fill-opacity="1" /><rect x="11" y="7" width="1" height="1" fill="rgb(191,210,237)" fill-opacity="1" /><rect x="12" y="7" width="1" height="1" fill="rgb(117,130,145)" fill-opacity="1" /><rect x="13" y="7" width="1" height="1" fill="rgb(31,20,16)" fill-opacity="1" /><rect x="14" y="7" width="1" height="1" fill="rgb(28,18,14)" fill-opacity="1" /><rect x="15" y="7" width="1" height="1" fill="rgb(37,29,22)" fill-opacity="1" /><rect x="0" y="8" width="1" height="1" fill="rgb(62,89,102)" fill-opacity="1" /><rect x="1" y="8" width="1" height="1" fill="rgb(66,90,102)" fill-opacity="1" /><rect x="2" y="8" width="1" height="1" fill="rgb(86,101,105)" fill-opacity="1" /><rect x="3" y="8" width="1" height="1" fill="rgb(164,160,145)" fill-opacity="1" /><rect x="4" y="8" width="1" height="1" fill="rgb(106,116,117)" fill-opacity="1" /><rect x="5" y="8" width="1" height="1" fill="rgb(75,90,93)" fill-opacity="1" /><rect x="6" y="8" width="1" height="1" fill="rgb(63,76,80)" fill-opacity="1" /><rect x="7" y="8" width="1" height="1" fill="rgb(48,55,64)" fill-opacity="1" /><rect x="8" y="8" width="1" height="1" fill="rgb(44,60,84)" fill-opacity="1" /><rect x="9" y="8" width="1" height="1" fill="rgb(65,97,131)" fill-opacity="1" /><rect x="10" y="8" width="1" height="1" fill="rgb(169,185,208)" fill-opacity="1" /><rect x="11" y="8" width="1" height="1" fill="rgb(173,195,224)" fill-opacity="1" /><rect x="12" y="8" width="1" height="1" fill="rgb(92,111,132)" fill-opacity="1" /><rect x="13" y="8" width="1" height="1" fill="rgb(25,22,16)" fill-opacity="1" /><rect x="14" y="8" width="1" height="1" fill="rgb(5,4,3)" fill-opacity="1" /><rect x="15" y="8" width="1" height="1" fill="rgb(0,0,0)" fill-opacity="1" /><rect x="0" y="9" width="1" height="1" fill="rgb(55,76,78)" fill-opacity="1" /><rect x="1" y="9" width="1" height="1" fill="rgb(70,85,86)" fill-opacity="1" /><rect x="2" y="9" width="1" height="1" fill="rgb(79,94,96)" fill-opacity="1" /><rect x="3" y="9" width="1" height="1" fill="rgb(77,91,90)" fill-opacity="1" /><rect x="4" y="9" width="1" height="1" fill="rgb(91,101,101)" fill-opacity="1" /><rect x="5" y="9" width="1" height="1" fill="rgb(64,70,79)" fill-opacity="1" /><rect x="6" y="9" width="1" height="1" fill="rgb(33,52,72)" fill-opacity="1" /><rect x="7" y="9" width="1" height="1" fill="rgb(35,66,98)" fill-opacity="1" /><rect x="8" y="9" width="1" height="1" fill="rgb(48,84,122)" fill-opacity="1" /><rect x="9" y="9" width="1" height="1" fill="rgb(149,181,214)" fill-opacity="1" /><rect x="10" y="9" width="1" height="1" fill="rgb(215,229,252)" fill-opacity="1" /><rect x="11" y="9" width="1" height="1" fill="rgb(155,187,225)" fill-opacity="1" /><rect x="12" y="9" width="1" height="1" fill="rgb(77,105,135)" fill-opacity="1" /><rect x="13" y="9" width="1" height="1" fill="rgb(24,25,28)" fill-opacity="1" /><rect x="14" y="9" width="1" height="1" fill="rgb(27,26,18)" fill-opacity="1" /><rect x="15" y="9" width="1" height="1" fill="rgb(4,4,3)" fill-opacity="1" /><rect x="0" y="10" width="1" height="1" fill="rgb(31,44,50)" fill-opacity="1" /><rect x="1" y="10" width="1" height="1" fill="rgb(44,56,57)" fill-opacity="1" /><rect x="2" y="10" width="1" height="1" fill="rgb(56,68,67)" fill-opacity="1" /><rect x="3" y="10" width="1" height="1" fill="rgb(63,76,76)" fill-opacity="1" /><rect x="4" y="10" width="1" height="1" fill="rgb(72,81,85)" fill-opacity="1" /><rect x="5" y="10" width="1" height="1" fill="rgb(50,51,57)" fill-opacity="1" /><rect x="6" y="10" width="1" height="1" fill="rgb(52,53,57)" fill-opacity="1" /><rect x="7" y="10" width="1" height="1" fill="rgb(75,88,105)" fill-opacity="1" /><rect x="8" y="10" width="1" height="1" fill="rgb(98,132,168)" fill-opacity="1" /><rect x="9" y="10" width="1" height="1" fill="rgb(146,179,215)" fill-opacity="1" /><rect x="10" y="10" width="1" height="1" fill="rgb(118,155,192)" fill-opacity="1" /><rect x="11" y="10" width="1" height="1" fill="rgb(89,135,181)" fill-opacity="1" /><rect x="12" y="10" width="1" height="1" fill="rgb(60,101,141)" fill-opacity="1" /><rect x="13" y="10" width="1" height="1" fill="rgb(3,10,27)" fill-opacity="1" /><rect x="14" y="10" width="1" height="1" fill="rgb(5,5,11)" fill-opacity="1" /><rect x="15" y="10" width="1" height="1" fill="rgb(10,10,7)" fill-opacity="1" /></svg>